<?xml version="1.0" encoding="UTF-8"?>
<svg width="700pt" height="700pt" version="1.1" viewBox="0 0 700 700" xmlns="http://www.w3.org/2000/svg">
 <path d="m364.77 0c-2.9727 0.94141-5.2188 3.3945-5.8945 6.4375-0.67969 3.043 0.3125 6.2188 2.6055 8.332l70 70c1.4023 2.2773 3.7734 3.7891 6.4297 4.1016 2.6602 0.30859 5.3125-0.61328 7.207-2.5039 1.8906-1.8945 2.8125-4.5469 2.5039-7.207-0.3125-2.6562-1.8242-5.0273-4.1016-6.4297l-70-70c-1.9492-2.1172-4.8164-3.1367-7.6641-2.7305-0.36719-0.023438-0.73438-0.023438-1.1016 0zm131.25 0c-3.75 1.2266-6.2148 4.8086-6.0195 8.75v35c0 4.832 3.918 8.75 8.75 8.75s8.75-3.918 8.75-8.75v-35c0.046875-2.6367-1.0977-5.1523-3.1133-6.8516-2.0156-1.6953-4.6914-2.3945-7.2812-1.8984-0.36719-0.023438-0.73438-0.023438-1.1016 0zm122.5 0c-1.3047 0.625-2.4336 1.5625-3.2891 2.7305l-70 70c-2.2773 1.4023-3.7891 3.7734-4.1016 6.4297-0.30859 2.6602 0.61328 5.3125 2.5039 7.207 1.8945 1.8906 4.5469 2.8125 7.207 2.5039 2.6562-0.3125 5.0273-1.8242 6.4297-4.1016l70-70c2.6562-2.6992 3.2773-6.8047 1.5312-10.168-1.7461-3.3633-5.457-5.2188-9.1953-4.6016-0.36719-0.023438-0.73438-0.023438-1.1016 0zm-128.52 91.875c-2.3984 0-5.3555 0.98047-7.1055 2.7305l-39.918 39.918c-3.5 3.5-3.5 9.082 0 12.582l39.918 39.918c3.5 3.5 9.082 3.5 12.582 0l39.918-39.918c3.5-3.5 3.5-9.082 0-12.582l-39.918-39.918c-0.875-1.75-3.0625-2.7305-5.4766-2.7305zm-133.98 30.625c-4.832 0.75391-8.1367 5.2812-7.3828 10.113 0.75391 4.8359 5.2812 8.1406 10.113 7.3867h35c4.832 0 8.75-3.918 8.75-8.75s-3.918-8.75-8.75-8.75h-35c-0.54688-0.050781-1.0977-0.050781-1.6445 0-0.36719-0.023438-0.73438-0.023438-1.1016 0zm227.5 0c-4.832 0.75391-8.1367 5.2812-7.3828 10.113 0.75391 4.8359 5.2812 8.1406 10.113 7.3867h35c4.832 0 8.75-3.918 8.75-8.75s-3.918-8.75-8.75-8.75h-35c-0.54688-0.050781-1.0977-0.050781-1.6445 0-0.36719-0.023438-0.73438-0.023438-1.1016 0zm-163.52 39.375c-2.625 0-5.3555 0.98047-7.1055 2.7305l-335.79 335.79c-3.5 3.5-3.5 9.082 0 12.582l39.918 39.918c3.5 3.5 9.082 3.5 12.582 0l337.42-335.79c3.5-3.5 3.5-9.082 0-12.582l-39.918-39.918c-1.75-1.75-4.4805-2.7305-7.1055-2.7305zm128.52 30.625c-2.9727 0.94141-5.2188 3.3945-5.8945 6.4375-0.67969 3.043 0.3125 6.2188 2.6055 8.332l70 70c1.4023 2.2773 3.7734 3.7891 6.4297 4.1016 2.6602 0.30859 5.3125-0.61328 7.207-2.5039 1.8906-1.8945 2.8125-4.5469 2.5039-7.207-0.3125-2.6562-1.8242-5.0273-4.1016-6.4297l-70-70c-1.9492-2.1172-4.8164-3.1367-7.6641-2.7305-0.36719-0.023438-0.73438-0.023438-1.1016 0zm-52.5 35c-3.75 1.2266-6.2148 4.8086-6.0195 8.75v35c0 4.832 3.918 8.75 8.75 8.75s8.75-3.918 8.75-8.75v-35c0.046875-2.6367-1.0977-5.1523-3.1133-6.8516-2.0156-1.6953-4.6914-2.3945-7.2812-1.8984-0.36719-0.023438-0.73438-0.023438-1.1016 0z"/>
</svg>
